<svg width="30" height="24" viewBox="0 0 30 24" fill="none" xmlns="http://www.w3.org/2000/svg">
<rect width="30" height="24" rx="3" fill="#41479B"/>
<mask id="mask0" mask-type="alpha" maskUnits="userSpaceOnUse" x="0" y="0" width="30" height="24">
<rect width="30" height="24" rx="3" fill="currentColor"/>
</mask>
<g mask="url(#mask0)">
<path d="M31.0001 20.9601V19.4058L26.0629 16.1143H31.0001V14.4686H17.5601V28.0001H19.2058V17.7601L29.9029 24.8001C30.2686 24.2515 30.5429 23.5201 30.7258 22.8801" fill="#F5F5F5"/>
<path d="M30.5429 0.48C30.3601 0.0228572 30.1772 -0.342857 29.9029 -0.708571L19.2058 6.33143V-4H17.5601V9.44H31.0001V7.79429H26.0629L31.0001 4.50286V3.04C31.0001 2.76571 31.0001 2.49143 30.9086 2.21714" fill="#F5F5F5"/>
<path d="M17.56 -4H12.44V9.44H-1V14.56H12.44V28H17.56V14.56H31V9.44H17.56V-4Z" fill="#FF4B55"/>
<path d="M20.4858 16.2058L30.7258 22.8801C30.9086 22.3315 31.0001 21.6915 31.0001 21.0515L23.5943 16.2972H20.4858V16.2058Z" fill="#FF4B55"/>
<path d="M22.3143 7.79427L31 2.21712C30.9085 1.57712 30.8171 1.02855 30.5428 0.47998L19.2057 7.79427H22.3143Z" fill="#FF4B55"/>
<path d="M-1 20.9601V19.4058L3.93714 16.1143H-1V14.4686H12.44V28.0001H10.7943V17.7601L0.0971429 24.8001C-0.268571 24.2515 -0.542857 23.5201 -0.725714 22.8801" fill="#F5F5F5"/>
<path d="M-0.542857 0.48C-0.36 0.0228572 -0.177143 -0.342857 0.0971429 -0.708571L10.7943 6.33143V-4H12.44V9.44H-1V7.79429H3.93714L-1 4.50286V2.94857C-1 2.67429 -1 2.4 -0.908571 2.12571" fill="#F5F5F5"/>
<path d="M9.51429 16.2058L-0.725714 22.8801C-0.908571 22.2401 -1 21.6001 -1 20.9601L6.40571 16.2058H9.51429Z" fill="#FF4B55"/>
<path d="M7.68572 7.79427L-0.908569 2.21712C-0.817141 1.57712 -0.725712 1.02855 -0.451427 0.47998L10.8857 7.79427H7.68572Z" fill="#FF4B55"/>
</g>
</svg>
